<svg width="28" height="28" viewBox="0 0 28 28" fill="none" xmlns="http://www.w3.org/2000/svg">
<g id="vuesax/linear/call">
<g id="call">
<g id="call_2">
<path id="Vector" d="M25.6316 21.385C25.6316 21.805 25.5383 22.2367 25.3399 22.6567C25.1416 23.0767 24.8849 23.4734 24.5466 23.8467C23.9749 24.4767 23.3449 24.9317 22.6333 25.2234C21.9333 25.515 21.1749 25.6667 20.3583 25.6667C19.1683 25.6667 17.8966 25.3867 16.5549 24.815C15.2133 24.2434 13.8716 23.4734 12.5416 22.505C11.1999 21.525 9.92825 20.44 8.71492 19.2384C7.51325 18.025 6.42825 16.7534 5.45992 15.4234C4.50325 14.0934 3.73325 12.7634 3.17325 11.445C2.61325 10.115 2.33325 8.84337 2.33325 7.63004C2.33325 6.83671 2.47325 6.07837 2.75325 5.37837C3.03325 4.66671 3.47659 4.01337 4.09492 3.43004C4.84159 2.69504 5.65825 2.33337 6.52159 2.33337C6.84825 2.33337 7.17492 2.40337 7.46659 2.54337C7.76992 2.68337 8.03825 2.89337 8.24825 3.19671L10.9549 7.01171C11.1649 7.30337 11.3166 7.57171 11.4216 7.82837C11.5266 8.07337 11.5849 8.31837 11.5849 8.54004C11.5849 8.82004 11.5033 9.10004 11.3399 9.36837C11.1883 9.63671 10.9666 9.91671 10.6866 10.1967L9.79992 11.1184C9.67158 11.2467 9.61325 11.3984 9.61325 11.585C9.61325 11.6784 9.62492 11.76 9.64825 11.8534C9.68325 11.9467 9.71825 12.0167 9.74159 12.0867C9.95159 12.4717 10.3133 12.9734 10.8266 13.58C11.3516 14.1867 11.9116 14.805 12.5183 15.4234C13.1483 16.0417 13.7549 16.6134 14.3733 17.1384C14.9799 17.6517 15.4816 18.0017 15.8783 18.2117C15.9366 18.235 16.0066 18.27 16.0883 18.305C16.1816 18.34 16.2749 18.3517 16.3799 18.3517C16.5783 18.3517 16.7299 18.2817 16.8583 18.1534L17.7449 17.2784C18.0366 16.9867 18.3166 16.765 18.5849 16.625C18.8533 16.4617 19.1216 16.38 19.4133 16.38C19.6349 16.38 19.8683 16.4267 20.1249 16.5317C20.3816 16.6367 20.6499 16.7884 20.9416 16.9867L24.8033 19.7284C25.1066 19.9384 25.3166 20.1834 25.4449 20.475C25.5616 20.7667 25.6316 21.0584 25.6316 21.385Z" stroke="white" stroke-width="1.5" stroke-miterlimit="10"/>
</g>
</g>
</g>
</svg>
