<svg width="28" height="28" viewBox="0 0 28 28" fill="none" xmlns="http://www.w3.org/2000/svg">
<g id="vuesax/linear/instagram">
<g id="instagram">
<path id="Vector" d="M10.4999 25.6666H17.4999C23.3333 25.6666 25.6666 23.3333 25.6666 17.5V10.5C25.6666 4.66665 23.3333 2.33331 17.4999 2.33331H10.4999C4.66659 2.33331 2.33325 4.66665 2.33325 10.5V17.5C2.33325 23.3333 4.66659 25.6666 10.4999 25.6666Z" stroke="#B9B3D9" stroke-width="1.5" stroke-linecap="round" stroke-linejoin="round"/>
<path id="Vector_2" d="M14.0001 18.0834C16.2552 18.0834 18.0834 16.2552 18.0834 14C18.0834 11.7449 16.2552 9.91669 14.0001 9.91669C11.7449 9.91669 9.91675 11.7449 9.91675 14C9.91675 16.2552 11.7449 18.0834 14.0001 18.0834Z" stroke="#B9B3D9" stroke-width="1.5" stroke-linecap="round" stroke-linejoin="round"/>
<path id="Vector_3" d="M20.5754 8.16665H20.5889" stroke="#B9B3D9" stroke-width="2" stroke-linecap="round" stroke-linejoin="round"/>
</g>
</g>
</svg>
