<svg width="28" height="28" viewBox="0 0 28 28" fill="none" xmlns="http://www.w3.org/2000/svg">
<g id="linkedin-2 1">
<path id="Vector" d="M18.6667 9.33331C20.5233 9.33331 22.3037 10.0708 23.6165 11.3836C24.9293 12.6963 25.6667 14.4768 25.6667 16.3333V24.5H21.0001V16.3333C21.0001 15.7145 20.7542 15.121 20.3167 14.6834C19.8791 14.2458 19.2856 14 18.6667 14C18.0479 14 17.4544 14.2458 17.0168 14.6834C16.5792 15.121 16.3334 15.7145 16.3334 16.3333V24.5H11.6667V16.3333C11.6667 14.4768 12.4042 12.6963 13.717 11.3836C15.0298 10.0708 16.8102 9.33331 18.6667 9.33331Z" stroke="#B9B3D9" stroke-width="1.5" stroke-linecap="round" stroke-linejoin="round"/>
<path id="Vector_2" d="M6.99992 10.5H2.33325V24.5H6.99992V10.5Z" stroke="#B9B3D9" stroke-width="1.5" stroke-linecap="round" stroke-linejoin="round"/>
<path id="Vector_3" d="M4.66659 6.99998C5.95525 6.99998 6.99992 5.95531 6.99992 4.66665C6.99992 3.37798 5.95525 2.33331 4.66659 2.33331C3.37792 2.33331 2.33325 3.37798 2.33325 4.66665C2.33325 5.95531 3.37792 6.99998 4.66659 6.99998Z" stroke="#B9B3D9" stroke-width="1.5" stroke-linecap="round" stroke-linejoin="round"/>
</g>
</svg>
